<?xml version="1.0" encoding="UTF-8"?>
<svg width="93px" height="97px" viewBox="0 0 93 97" version="1.1" xmlns="http://www.w3.org/2000/svg" xmlns:xlink="http://www.w3.org/1999/xlink">
    <!-- Generator: Sketch 62 (91390) - https://sketch.com -->
    <title>Group 2</title>
    <desc>Created with Sketch.</desc>
    <g id="Page-1" stroke="none" stroke-width="1" fill="none" fill-rule="evenodd">
        <g id="Desktop-HD-Copy-2" transform="translate(-674.000000, -37.000000)" fill-rule="nonzero">
            <g id="Group-2" transform="translate(674.000000, 37.000000)">
                <g id="logo" transform="translate(0.000000, 60.000000)" fill="#F46760">
                    <path d="M6.82026755,37 C9.74323936,36.9481793 12.2046893,35.0826331 13.127733,32.4397759 C13.3841341,31.7142857 13.5379747,30.9369748 13.5379747,30.1596639 L13.5379747,24.6148459 C13.5379747,23.7338936 13.2302934,22.9047619 12.6662112,22.2310924 L4.87161968,12.5406162 C4.61521864,12.2296919 4.51265823,11.8669468 4.51265823,11.5042017 L4.51265823,6.84033613 C4.51265823,5.59663866 5.53826237,4.56022409 6.76898734,4.56022409 C7.99971231,4.56022409 9.02531646,5.59663866 9.02531646,6.84033613 L9.02531646,9.12044818 L13.5379747,9.12044818 L13.5379747,6.84033613 C13.5379747,6.06302521 13.3841341,5.28571429 13.127733,4.56022409 C12.2046893,1.91736695 9.74323936,0.0518207283 6.82026755,0 L6.76898734,0 C5.94850403,0 5.23058113,0.155462185 4.51265823,0.414565826 C1.89736766,1.34733894 0,3.83473389 0,6.78851541 L0,12.3333333 C0,13.2142857 0.307681243,14.0434174 0.820483314,14.7170868 L8.66635501,24.4593838 C8.87147583,24.7703081 9.02531646,25.1330532 9.02531646,25.4957983 L9.02531646,30.1596639 C9.02531646,31.4033613 7.99971231,32.4397759 6.76898734,32.4397759 C5.53826237,32.4397759 4.51265823,31.4033613 4.51265823,30.1596639 L4.51265823,27.9313725 L0,27.9313725 L0,30.1596639 C0,33.1134454 1.89736766,35.6526611 4.51265823,36.5854342 C5.23058113,36.8445378 5.94850403,37 6.76898734,37 L6.82026755,37 Z M20.4050633,36.4032258 L20.4050633,27.4052533 L24.9177215,27.4052533 L24.9177215,36.4032258 L29.4303797,36.4032258 L29.4303797,6.7870421 C29.4303797,3.85627392 27.5330121,1.33684163 24.9177215,0.411335885 C24.1997986,0.154250957 23.4305955,0 22.6613924,0 C21.8921893,0 21.1229862,0.154250957 20.4050633,0.411335885 C17.7897727,1.33684163 15.8924051,3.85627392 15.8924051,6.7870421 L15.8924051,36.4032258 L20.4050633,36.4032258 Z M24.721519,23.2741935 L20.0126582,23.2741935 L20.0126582,7.04793657 C20.0126582,5.8077131 21.0828539,4.77419355 22.3670886,4.77419355 C23.6513234,4.77419355 24.721519,5.8077131 24.721519,7.04793657 L24.721519,23.2741935 Z M36.2974684,37 L36.2974684,14.2219816 L38.5537975,14.2219816 C39.7845224,14.2219816 40.8101266,15.2620737 40.8101266,16.5101843 L40.8101266,37 L45.3227848,37 L45.3227848,16.5101843 C45.3227848,14.7940323 44.6561421,13.1818894 43.5792578,11.9337788 C44.6561421,10.7376728 45.2715046,9.17753456 45.3227848,7.46138249 L45.3227848,0.596774194 L40.8101266,0.596774194 L40.8101266,7.40937788 C40.7588464,8.65748848 39.7845224,9.64557604 38.5537975,9.64557604 L36.2974684,9.64557604 L36.2974684,0.596774194 L31.7848101,0.596774194 L31.7848101,37 L36.2974684,37 Z M54.4462025,37 C55.2154056,37 55.9846087,36.8455309 56.7025316,36.5880823 C59.3178222,35.6612675 61.2151899,33.1382717 61.2151899,30.2033581 L61.2151899,0.596774194 L56.7025316,0.596774194 L56.7025316,30.2033581 C56.7025316,31.4391112 55.6769275,32.4689054 54.4462025,32.4689054 C53.2154776,32.4689054 52.1898734,31.4391112 52.1898734,30.2033581 L52.1898734,0.596774194 L47.6772152,0.596774194 L47.6772152,30.2033581 C47.6772152,33.1382717 49.5745829,35.6612675 52.1898734,36.5880823 C52.9077963,36.8455309 53.6257192,37 54.4462025,37 Z M68.0822785,36.4032258 L68.0822785,13.6382456 L70.3386076,13.6382456 C71.6206128,13.6382456 72.5949367,14.6753745 72.5949367,15.9717857 L72.5949367,36.4032258 L77.1075949,36.4032258 L77.1075949,15.9717857 C77.1075949,14.2086665 76.4922325,12.6011166 75.3640679,11.3565619 C76.4409522,10.1638636 77.1075949,8.6081702 77.1075949,6.89690745 L77.1075949,6.84505101 L77.1075949,6.84505101 C77.1075949,3.83737708 75.2102273,1.34826762 72.5949367,0.414851576 C71.928294,0.155569341 71.1590909,0 70.3386076,0 L63.5696203,0 L63.5696203,36.4032258 L68.0822785,36.4032258 Z M70.6329114,9.5483871 L68.278481,9.5483871 L68.278481,4.77419355 L70.6329114,4.77419355 C71.9171461,4.77419355 72.9873418,5.87170931 72.9873418,7.18872822 C72.9873418,8.50574713 71.9171461,9.5483871 70.6329114,9.5483871 Z M83.9746835,36.4032258 L83.9746835,27.4052533 L88.4873418,27.4052533 L88.4873418,36.4032258 L93,36.4032258 L93,6.7870421 C93,3.85627392 91.1026323,1.33684163 88.4873418,0.411335885 C87.7694189,0.154250957 87.0002158,0 86.2310127,0 C85.4618096,0 84.6926064,0.154250957 83.9746835,0.411335885 C81.359393,1.33684163 79.4620253,3.85627392 79.4620253,6.7870421 L79.4620253,36.4032258 L83.9746835,36.4032258 Z M88.8797468,23.2741935 L84.1708861,23.2741935 L84.1708861,7.04793657 C84.1708861,5.8077131 85.2410817,4.77419355 86.5253165,4.77419355 C87.8095512,4.77419355 88.8797468,5.8077131 88.8797468,7.04793657 L88.8797468,23.2741935 Z" id="SAKURA"></path>
                </g>
                <g id="japan" transform="translate(16.000000, 0.000000)" fill="#000000">
                    <path d="M61.6920058,0.458136477 C61.3816447,0.0912913412 60.8960622,-0.0725092778 60.4280381,0.0303536109 C60.3132421,0.0569224613 48.709757,2.59973207 30.9999203,2.59973207 C13.2900836,2.59973207 1.68659859,0.0569224613 1.57192362,0.0302317355 C1.10268863,-0.0726311532 0.618317023,0.0911694658 0.307955919,0.458014602 C-0.00240518533,0.824859738 -0.0855960081,1.33527417 0.092289463,1.78219148 L2.67556431,8.28217542 C2.85599273,8.73664901 3.27473198,9.05023457 3.75789266,9.09471911 C3.81759146,9.10008163 6.38137035,9.33091376 10.2630033,9.59660226 L9.92127911,15.5998218 L6.45850653,15.5998218 C5.74454279,15.5998218 5.16680856,16.1812896 5.16680856,16.8998674 L5.16680856,22.0998058 C5.16680856,22.8183835 5.74454279,23.3998513 6.45850653,23.3998513 L9.44296216,23.3998513 L7.75262636,50.6186635 C7.72998198,50.9767336 7.85603969,51.3283443 8.10076845,51.5898891 C8.34416518,51.8514338 8.6847995,52 9.04178138,52 L14.2084522,52 C14.8908107,52 15.4547403,51.4667949 15.4976072,50.7812454 L17.1979937,23.3998513 L44.8020891,23.3998513 L46.5024756,50.7812454 C46.5453425,51.4667949 47.1091511,52 47.7916307,52 L52.9583015,52 C53.3152833,52 53.6557966,51.8514338 53.8993144,51.5898891 C54.1440431,51.3283443 54.2702219,50.9767336 54.2474565,50.6186635 L52.5572418,23.3998513 L55.5416974,23.3998513 C56.2556611,23.3998513 56.8333954,22.8183835 56.8333954,22.0998058 L56.8333954,16.8997455 C56.8333954,16.1811678 56.2556611,15.5996999 55.5416974,15.5996999 L52.0789248,15.5996999 L51.7372006,9.59648039 C55.6188336,9.33067001 58.1826125,9.09995976 58.2423113,9.09459724 C58.7254719,9.0501127 59.1442112,8.73652714 59.3246396,8.28205354 L61.9079145,1.78206961 C62.0855577,1.33527417 62.0022458,0.824981614 61.6920058,0.458136477 Z M27.1249475,15.5998218 L17.6777638,15.5998218 L18.005199,10.0498571 C20.8971396,10.1901358 24.0020827,10.3046987 27.1248264,10.3607614 L27.1248264,15.5998218 L27.1249475,15.5998218 Z M34.8748931,15.5998218 L34.8748931,10.3607614 C37.9976369,10.3046987 41.102701,10.1901358 43.9945206,10.0498571 L44.3219558,15.5998218 L34.8748931,15.5998218 Z" id="Shape"></path>
                </g>
            </g>
        </g>
    </g>
</svg>