<?xml version="1.0" encoding="UTF-8"?>
<svg width="35px" height="89px" viewBox="0 0 35 89" version="1.1" xmlns="http://www.w3.org/2000/svg" xmlns:xlink="http://www.w3.org/1999/xlink">
    <!-- Generator: Sketch 62 (91390) - https://sketch.com -->
    <title>SAKURA</title>
    <desc>Created with Sketch.</desc>
    <g id="Page-1" stroke="none" stroke-width="1" fill="none" fill-rule="evenodd">
        <g id="STORY" transform="translate(-516.000000, -1200.000000)" fill="#000000" fill-rule="nonzero">
            <g id="Group-7" transform="translate(458.000000, 1157.000000)">
                <g id="Group-8" transform="translate(73.000000, 86.000000) rotate(-90.000000) translate(-73.000000, -86.000000) translate(18.000000, 57.000000)">
                    <path d="M16.12,48.336 C18.856,48.288 21.16,46.56 22.024,44.112 C22.264,43.44 22.408,42.72 22.408,42 L22.408,36.864 C22.408,36.048 22.12,35.28 21.592,34.656 L14.296,25.68 C14.056,25.392 13.96,25.056 13.96,24.72 L13.96,20.4 C13.96,19.248 14.92,18.288 16.072,18.288 C17.224,18.288 18.184,19.248 18.184,20.4 L18.184,22.512 L22.408,22.512 L22.408,20.4 C22.408,19.68 22.264,18.96 22.024,18.288 C21.16,15.84 18.856,14.112 16.12,14.064 L16.072,14.064 C15.304,14.064 14.632,14.208 13.96,14.448 C11.512,15.312 9.736,17.616 9.736,20.352 L9.736,25.488 C9.736,26.304 10.024,27.072 10.504,27.696 L17.848,36.72 C18.04,37.008 18.184,37.344 18.184,37.68 L18.184,42 C18.184,43.152 17.224,44.112 16.072,44.112 C14.92,44.112 13.96,43.152 13.96,42 L13.96,39.936 L9.736,39.936 L9.736,42 C9.736,44.736 11.512,47.088 13.96,47.952 C14.632,48.192 15.304,48.336 16.072,48.336 L16.12,48.336 Z M29.032,48 L29.032,39.6 L33.256,39.6 L33.256,48 L37.48,48 L37.48,20.352 C37.48,17.616 35.704,15.264 33.256,14.4 C32.584,14.16 31.864,14.016 31.144,14.016 C30.424,14.016 29.704,14.16 29.032,14.4 C26.584,15.264 24.808,17.616 24.808,20.352 L24.808,48 L29.032,48 Z M33.256,35.424 L29.032,35.424 L29.032,20.352 C29.032,19.2 29.992,18.24 31.144,18.24 C32.296,18.24 33.256,19.2 33.256,20.352 L33.256,35.424 Z M44.152,48 L44.152,26.976 L46.264,26.976 C47.416,26.976 48.376,27.936 48.376,29.088 L48.376,48 L52.6,48 L52.6,29.088 C52.6,27.504 51.976,26.016 50.968,24.864 C51.976,23.76 52.552,22.32 52.6,20.736 L52.6,14.4 L48.376,14.4 L48.376,20.688 C48.328,21.84 47.416,22.752 46.264,22.752 L44.152,22.752 L44.152,14.4 L39.928,14.4 L39.928,48 L44.152,48 Z M61.336,48.336 C62.056,48.336 62.776,48.192 63.448,47.952 C65.896,47.088 67.672,44.736 67.672,42 L67.672,14.4 L63.448,14.4 L63.448,42 C63.448,43.152 62.488,44.112 61.336,44.112 C60.184,44.112 59.224,43.152 59.224,42 L59.224,14.4 L55,14.4 L55,42 C55,44.736 56.776,47.088 59.224,47.952 C59.896,48.192 60.568,48.336 61.336,48.336 Z M74.296,48 L74.296,26.928 L76.408,26.928 C77.608,26.928 78.52,27.888 78.52,29.088 L78.52,48 L82.744,48 L82.744,29.088 C82.744,27.456 82.168,25.968 81.112,24.816 C82.12,23.712 82.744,22.272 82.744,20.688 L82.744,20.64 L82.744,20.64 C82.744,17.856 80.968,15.552 78.52,14.688 C77.896,14.448 77.176,14.304 76.408,14.304 L70.072,14.304 L70.072,48 L74.296,48 Z M76.408,22.704 L74.296,22.704 L74.296,18.528 L76.408,18.528 C77.56,18.528 78.52,19.488 78.52,20.64 C78.52,21.792 77.56,22.704 76.408,22.704 Z M89.368,48 L89.368,39.6 L93.592,39.6 L93.592,48 L97.816,48 L97.816,20.352 C97.816,17.616 96.04,15.264 93.592,14.4 C92.92,14.16 92.2,14.016 91.48,14.016 C90.76,14.016 90.04,14.16 89.368,14.4 C86.92,15.264 85.144,17.616 85.144,20.352 L85.144,48 L89.368,48 Z M93.592,35.424 L89.368,35.424 L89.368,20.352 C89.368,19.2 90.328,18.24 91.48,18.24 C92.632,18.24 93.592,19.2 93.592,20.352 L93.592,35.424 Z" id="SAKURA"></path>
                </g>
            </g>
        </g>
    </g>
</svg>